<svg width="1020" height="1080" viewBox="0 0 1020 1080" fill="none" xmlns="http://www.w3.org/2000/svg">
<rect width="1020" height="1080" rx="40" fill="#FC6E20"/>
<mask id="mask0_119_596" style="mask-type:alpha" maskUnits="userSpaceOnUse" x="0" y="0" width="1020" height="1080">
<rect width="1020" height="1080" rx="40" fill="#FC6E20"/>
</mask>
<g mask="url(#mask0_119_596)">
<path d="M-26 878.5C62.3333 883.5 239 943 239 1141" stroke="#FFA16E" stroke-width="15"/>
<path d="M-72 935C16.3333 940 193 999.5 193 1197.5" stroke="#C84700" stroke-width="15"/>
<path d="M-122 992C-33.6667 997 143 1056.5 143 1254.5" stroke="#FFA16E" stroke-width="15"/>
<path d="M-31.5 671.5C-23.8333 739.5 23.8 873.3 153 864.5" stroke="#C84700" stroke-width="15"/>
<path d="M187.5 209L853.5 890C849.667 938.667 870.6 1054.1 953 1088.5" stroke="#FFA16E" stroke-width="15"/>
<path d="M-60 30C-37.8333 43.8333 15 87.7 25 140.5C27.8105 173.914 50.6314 239.332 120.267 256.673C129.695 259.02 138.652 263.326 145.362 270.353L767.5 922C782.667 944.667 812.4 995.9 810 1019.5C808.833 1035 816.8 1082.2 848 1093" stroke="#C84700" stroke-width="15"/>
<path d="M-11.5 244.5C-3.16667 274.167 41.3 334.3 152.5 337.5L643 934C676.333 940.833 748.2 984.2 769 1103" stroke="#FFA16E" stroke-width="15"/>
<path d="M-24.5 362.5C19.6667 370.167 118.3 396.9 159.5 442.5L485.5 946C497.167 962.5 532.3 993.8 579.5 987C622.5 985.5 706.3 1006.6 697.5 1103" stroke="#C84700" stroke-width="15"/>
<path d="M-32.5 433.5C9.16667 429.833 101.4 445 137 535L395 890.5C384 924.667 388.9 1000.4 496.5 1030C528.667 1036.83 597.4 1062.3 615 1109.5" stroke="#FFA16E" stroke-width="15"/>
<path d="M-23.5 501.5C18.6667 497.167 112.6 546.3 151 777.5L242 896C265.167 897.167 318.2 923.2 345 1018C355.667 1044.83 405.9 1104 521.5 1126" stroke="#C84700" stroke-width="15"/>
<path d="M-28.5 578.5C-9.5 586.333 30.1 613.3 36.5 658.5C41.6667 697 73.4 782 159 814C198.5 862 277.3 970.9 276.5 1022.5C280.333 1052.33 303.3 1114.1 364.5 1122.5" stroke="#FFA16E" stroke-width="15"/>
</g>
</svg>
