<svg width="417" height="477" viewBox="0 0 417 477" fill="none" xmlns="http://www.w3.org/2000/svg">
<path d="M205.365 211.422L203.241 203.299L197.771 199.889L193.956 202.144L194.847 205.359L205.365 211.422Z" fill="#6E7ABA"/>
<path d="M209.832 192.756L205.593 195.262L210.267 198.177L209.832 192.756Z" fill="#6E7ABA"/>
<path d="M175.236 223.76L182.234 227.632L179.091 216.978L174.775 214.787V222.229L175.236 223.76Z" fill="#6E7ABA"/>
<path d="M183.748 213.629L186.407 215.016L184.972 206.304C184.424 206.055 184.023 205.545 183.835 204.803L180.643 203.007L183.748 213.629Z" fill="#6E7ABA"/>
<path d="M265.274 236.083L262.473 237.74L263.305 242.792L269.654 239.036L265.274 236.083Z" fill="#6E7ABA"/>
<path d="M249.898 245.175L240.927 250.481L242.343 255.187L254.278 248.13L249.898 245.175Z" fill="#6E7ABA"/>
<path d="M183.862 284.322L174.775 253.661V311.725L197.783 297.803C197.972 294.847 198.445 292.051 199.149 289.498C192.053 293.106 185.865 291.089 183.862 284.322Z" fill="#BAC1E3"/>
<path d="M201.184 228.205L201.961 231.01L204.152 229.713L201.184 228.205Z" fill="#6E7ABA"/>
<path d="M265.421 255.646L265.605 256.76L266.379 256.292L265.421 255.646Z" fill="#6E7ABA"/>
<path d="M271.015 251.767C271.227 249.919 271.562 248.157 271.986 246.486L267.183 249.326L271.015 251.767Z" fill="#6E7ABA"/>
<path d="M252.276 264.826L257.843 261.458L256.851 255.435L246.835 261.358L252.276 264.826Z" fill="#6E7ABA"/>
<path d="M200.367 280.01L214.45 271.682L183.917 252.866L191.219 277.506C192.395 281.47 196.156 282.5 200.367 280.01Z" fill="#BAC1E3"/>
<path d="M179.03 236.372C180.007 239.621 182.669 240.95 185.908 240.078L184.31 234.662L177.394 230.932L179.03 236.372Z" fill="#6E7ABA"/>
<path d="M221.487 233.311L220.177 229.064L216.975 230.958L221.487 233.311Z" fill="#6E7ABA"/>
<path d="M217.605 236.55L219.512 243.946L226.053 248.115L223.393 239.49L217.605 236.55Z" fill="#6E7ABA"/>
<path d="M196.486 189.586L198.327 190.732L209.155 184.329L208.984 182.195L196.486 189.586Z" fill="#6E7ABA"/>
<path d="M209.043 226.821L209.344 226.644L207.047 217.859L196.7 212.039L199.405 221.795L209.043 226.821Z" fill="#6E7ABA"/>
<path d="M189.11 231.434L187.427 221.215L185.711 220.343L188.924 231.331L189.11 231.434Z" fill="#6E7ABA"/>
<path d="M215.893 251.696L206.256 246.499L209.78 259.202L219.407 265.135L215.893 251.696Z" fill="#6E7ABA"/>
<path d="M212.74 239.63L211.343 234.289L207.719 236.432L212.74 239.63Z" fill="#6E7ABA"/>
<path d="M234.093 274.186L232.713 269.709L229.71 271.485L234.093 274.186Z" fill="#6E7ABA"/>
<path d="M222.212 174.495C221.681 174.815 221.141 175.08 220.597 175.328L216.679 177.644L216.851 179.778L219.23 178.37L225.01 197.578L234.075 192.217V167.357L224.969 172.741C224.673 172.953 224.388 173.176 224.075 173.365L222.212 174.495Z" fill="#BAC1E3"/>
<path d="M229.405 258.983L222.415 255.214L225.044 265.417L230.411 262.243L229.405 258.983Z" fill="#6E7ABA"/>
<path d="M198.117 242.109L192.965 245.156L194.279 249.65L203.068 255.066L199.668 242.945L198.117 242.109Z" fill="#6E7ABA"/>
<path d="M305.284 212.423L302.524 214.056L305.284 215.815V212.423Z" fill="#6E7ABA"/>
<path d="M298.209 230.978L303.079 234.083L305.284 232.748V226.604C304.95 226.913 304.603 227.197 304.237 227.414L298.209 230.978Z" fill="#6E7ABA"/>
<path d="M238.671 242.987L239.631 242.42L238.25 241.583L238.671 242.987Z" fill="#6E7ABA"/>
<path d="M301.331 220.306L296.951 217.35L287.889 222.71L288.032 224.492L291.025 226.4L301.331 220.306Z" fill="#6E7ABA"/>
<path d="M336.174 235.5L338.876 237.222L340.559 236.226L336.332 233.355L336.174 235.5Z" fill="#6E7ABA"/>
<path d="M314.758 241.524L322.863 246.689L328.225 243.52L328.58 238.684L312.949 228.142V230.614L314.758 231.743V241.524Z" fill="#6E7ABA"/>
<path d="M183.484 197.273L182.169 198.051L183.764 198.971L183.484 197.273Z" fill="#6E7ABA"/>
<path d="M211.07 208.181L210.148 207.605L211.42 212.542L211.07 208.181Z" fill="#6E7ABA"/>
<path d="M235.613 219.937L232.323 221.883L234.27 228.351L235.613 229.208V219.937Z" fill="#6E7ABA"/>
<path d="M234.075 212.019V201.045L227.266 205.069L230.069 214.388L234.075 212.019Z" fill="#6E7ABA"/>
<path d="M199.601 178.916L206.948 174.572C202.666 172.05 199.606 167.439 199.606 161.744V156.095L199.601 156.097V178.916Z" fill="#6E7ABA"/>
<path d="M329.319 228.594L312.949 217.482V220.7L329.142 231.018L329.319 228.594Z" fill="#6E7ABA"/>
<path d="M280.619 232.553L280.194 227.26L270.886 232.764L275.399 235.64L280.619 232.553Z" fill="#6E7ABA"/>
<path d="M174.775 208.95L177.076 210.15L174.794 202.414L174.775 202.424V208.95Z" fill="#6E7ABA"/>
<path d="M372.919 323.395H362.221C354.658 323.395 348.526 312.242 348.526 298.485C348.526 294.566 349.038 290.872 349.925 287.573L314.758 308.368V356.046L325.769 363.492L416.014 309.734L385.676 289.475C386.274 292.271 386.614 295.302 386.614 298.484C386.613 312.242 380.482 323.395 372.919 323.395Z" fill="#BAC1E3"/>
<path d="M314.758 251.482L316.198 250.631L314.758 249.66V251.482Z" fill="#5F65A5"/>
<path d="M314.758 299.54L360.364 272.572L329.206 251.767L314.758 260.31V299.54Z" fill="#BAC1E3"/>
<path d="M330.555 211.73L318.956 204.339L313.337 207.662L330.028 218.919L330.555 211.73Z" fill="#6B91AE"/>
<path d="M213.91 143.146V143.139L206.224 147.791L206.224 147.8L213.91 143.146Z" fill="#6B91AE"/>
<path d="M353.461 207.963L352.192 207.129L355.109 195.997L357.065 181.802L347.184 187.646L348.982 188.66L345.448 202.698L338.894 198.39L338.273 206.86L352.339 216.103L353.461 207.963Z" fill="#6B91AE"/>
<path d="M332.274 179.237L332.911 179.597L333.556 170.789L332.274 170.08V179.237Z" fill="#6B91AE"/>
<path d="M332.274 154.866L334.633 156.106L335.269 147.429L332.274 145.882V154.866Z" fill="#6B91AE"/>
<path d="M350.366 230.427L351.135 224.844L337.588 216.212L337.043 223.65L348.621 231.459L350.366 230.427Z" fill="#6B91AE"/>
<path d="M368.684 211.094L376.996 170.017L369.495 174.453L371.492 175.503L368.561 190.17L363.447 187.34L362.235 196.136L366.85 198.739L363.668 214.669L360.012 212.267L358.89 220.408L362.364 222.691C365.405 219.665 367.825 215.341 368.684 211.094Z" fill="#6B91AE"/>
<path d="M339.342 192.284L339.213 194.035L339.636 192.11L339.342 192.284Z" fill="#6B91AE"/>
<path d="M343.407 136.821L340.019 183.058L347.607 178.569L343.147 176.099L346.196 162.191L354.542 166.584L352.209 175.847L358.391 172.193L364.749 126.045L362.125 136.464L352.982 131.243L353.112 130.653L343.511 136.33L343.407 136.821ZM351.157 139.567L360.044 144.733L356.593 158.438L347.993 153.998L351.157 139.567Z" fill="#6B91AE"/>
<path d="M331.648 196.833L327.105 199.521L331.252 202.245L331.648 196.833Z" fill="#6B91AE"/>
<path d="M234.074 113.869V158.53L231.257 160.197V160.616C231.257 165.464 228.882 169.962 224.969 172.742L234.074 167.358V192.218L235.612 191.308V104.132L216.614 115.367L221.598 121.246L234.074 113.869Z" fill="#6B91AE"/>
<path d="M366.168 167.593L369.972 165.345L366.711 163.66L366.168 167.593Z" fill="#6B91AE"/>
<path d="M383.559 115.086L382.095 122.42L375.394 118.587L375.739 117.272L372.868 118.969L370.177 138.498L373.207 126.935L380.36 131.104L377.532 145.261L369.85 140.874L368.629 149.726L375.807 153.9L373.996 162.964L379.025 159.99L386.36 123.74C387.064 120.255 386.507 117.382 384.822 115.861C384.444 115.519 384.017 115.27 383.559 115.086Z" fill="#6B91AE"/>
<path d="M334.194 82.0078L332.274 91.1062V130.525L332.651 128.806L337.016 131.344L344.945 126.654L334.438 120.654L337.61 106.189L348.528 112.553L345.639 126.244L355.335 120.511L356.111 116.971L358.734 118.501L366.854 113.699L357.946 108.601L360.172 98.4482L370.114 104.739L368.033 113.001L377.839 107.203C381.969 104.761 385.831 104.235 388.827 105.573L332.275 69.7815V80.7933L334.194 82.0078ZM341.85 86.8521L352.526 93.6099L350.287 104.218L339.407 97.9913L341.85 86.8521Z" fill="#6B91AE"/>
<path d="M329.142 231.018L312.949 220.7V228.142L328.58 238.684L329.142 231.018Z" fill="#6B91AE"/>
<path d="M230.069 214.388L232.323 221.883L235.613 219.937V200.134L234.075 201.045V212.019L230.069 214.388Z" fill="#6B91AE"/>
<path d="M217.052 202.406L213.497 190.588L209.833 192.756L210.267 198.177L217.052 202.406Z" fill="#6B91AE"/>
<path d="M220.596 175.328C215.957 177.438 210.926 176.915 206.947 174.572L199.601 178.916V179.783C199.601 183.338 198.311 186.696 196.096 189.342L196.486 189.586L208.984 182.195L209.155 184.329L216.851 179.779L216.679 177.644L220.596 175.328Z" fill="#6B91AE"/>
<path d="M209.446 227.03L209.344 226.644L209.043 226.821L209.446 227.03Z" fill="#6B91AE"/>
<path d="M197.785 236.232L194.594 224.856L187.427 221.215L189.109 231.433L197.785 236.232Z" fill="#6B91AE"/>
<path d="M212.138 215.327L216.762 217.992L214.37 210.237L211.07 208.181L211.42 212.542L212.138 215.327Z" fill="#6B91AE"/>
<path d="M190.943 238.24L192.966 245.156L198.118 242.109L190.943 238.24Z" fill="#6B91AE"/>
<path d="M192.765 218.332L189.931 208.232L186.585 206.35C185.974 206.531 185.425 206.509 184.972 206.304L186.406 215.016L192.765 218.332Z" fill="#6B91AE"/>
<path d="M216.04 230.471L216.975 230.958L220.177 229.064L218.752 224.442L213.764 221.636L216.04 230.471Z" fill="#6B91AE"/>
<path d="M298.21 230.978L304.237 227.414C304.603 227.197 304.95 226.913 305.284 226.603V215.815L302.524 214.056L296.951 217.351L301.331 220.305L291.025 226.4L288.032 224.492L289.463 242.322L303.08 234.083L298.21 230.978Z" fill="#6B91AE"/>
<path d="M281.776 246.975L280.618 232.554L275.398 235.64L270.885 232.764L265.273 236.083L269.654 239.036L263.304 242.792L265.42 255.646L266.378 256.292L281.776 246.975ZM271.986 246.486C271.562 248.157 271.226 249.919 271.015 251.767L267.182 249.326L271.986 246.486Z" fill="#6B91AE"/>
<path d="M220.803 248.961L227.447 252.635L226.053 248.115L219.511 243.946L220.803 248.961Z" fill="#6B91AE"/>
<path d="M178.328 195.09L178.59 195.988L182.17 198.051L183.485 197.273L183.765 198.971L185.027 199.698C185.556 198.853 186.208 198.103 186.933 197.541L186.332 195.398C183.611 196.066 180.858 195.908 178.328 195.09Z" fill="#6B91AE"/>
<path d="M314.758 249.66L316.198 250.631L322.863 246.689L314.758 241.525V249.66Z" fill="#6B91AE"/>
<path d="M179.03 236.372L177.394 230.932L176.002 230.182L179.032 240.254L187.5 245.471L185.908 240.078C182.669 240.95 180.007 239.621 179.03 236.372Z" fill="#6B91AE"/>
<path d="M246.835 261.358L256.851 255.435L254.695 242.339L249.898 245.175L254.278 248.131L242.342 255.187L246.326 268.427L252.276 264.826L246.835 261.358Z" fill="#6B91AE"/>
<path d="M225.044 265.417L226.021 269.21L229.711 271.485L232.714 269.709L230.411 262.243L225.044 265.417Z" fill="#6B91AE"/>
<path d="M183.862 284.322C185.865 291.089 192.053 293.106 199.149 289.498C198.445 292.051 197.972 294.847 197.783 297.803L227.579 279.772L214.45 271.683L200.368 280.01C196.156 282.5 192.395 281.47 191.22 277.507L183.918 252.866L174.775 247.232V253.661L183.862 284.322Z" fill="#6B91AE"/>
<path d="M174.775 223.507L175.236 223.76L174.775 222.229V223.507Z" fill="#6B91AE"/>
<path d="M174.794 202.414L174.775 202.351V202.424L174.794 202.414Z" fill="#6B91AE"/>
<path d="M335.92 238.969L338.875 237.222L336.174 235.5L335.92 238.969Z" fill="#6B91AE"/>
<path d="M214.229 245.324L212.74 239.631L207.719 236.432L211.343 234.289L211.065 233.227L204.153 229.713L201.962 231.009L204.429 239.906L214.229 245.324Z" fill="#6B91AE"/>
<path d="M234.269 228.351L235.613 232.817V229.208L234.269 228.351Z" fill="#6B91AE"/>
<path d="M235.613 229.208V232.817L238.25 241.583L239.631 242.42L243.983 239.847V195.185L235.613 200.134V219.937V229.208Z" fill="#D55E1C"/>
<path d="M235.613 191.308L243.983 186.358V86.1645L235.613 81.0968V104.132V191.308Z" fill="#D55E1C"/>
<path d="M279.768 10.8585L280.595 9.11837C282.374 5.37274 287.03 4.03087 290.532 6.25062C290.532 6.25062 284.471 2.54519 282.143 0.870685C279.438 -1.07588 274.318 0.102933 271.589 5.81522C268.859 11.5244 235.613 81.0966 235.613 81.0966L243.983 86.1643L279.768 10.8585Z" fill="#D55E1C"/>
<path d="M287.213 214.282L305.284 203.597V158.935L283.791 171.644L287.213 214.282Z" fill="#FC6E20"/>
<path d="M276.447 124.259C276.447 118.554 275.091 114.886 271.548 116.823C268.156 118.676 266.573 124.037 266.573 129.657C266.573 135.536 268.307 138.824 271.623 137.012C274.864 135.24 276.447 130.572 276.447 124.259Z" fill="#FC6E20"/>
<path d="M312.949 199.064L332.275 187.637V179.237V170.08V154.866V145.882V142.974L312.949 154.401V199.064Z" fill="#FC6E20"/>
<path d="M306.899 120.845C303.432 122.74 301.924 128.059 301.924 133.678C301.848 139.6 303.582 142.887 306.899 141.075C310.139 139.303 311.722 134.635 311.722 128.323C311.722 122.618 310.441 118.908 306.899 120.845Z" fill="#FC6E20"/>
<path d="M243.982 239.847L253.369 234.295L246.667 193.597L243.982 195.185V239.847Z" fill="#FC6E20"/>
<path d="M261.148 229.696L279.518 218.833L276.096 176.195L254.447 188.998L261.148 229.696Z" fill="#FC6E20"/>
<path d="M280.594 9.11827L279.768 10.8584L243.982 86.1642V186.357L332.274 134.148V130.524V91.1059V80.7931V69.7812V32.7349L290.532 6.25051C287.03 4.03049 282.374 5.37264 280.594 9.11827ZM258.055 134.658C258.055 124.629 263.407 114.095 271.774 109.522C280.215 104.908 284.964 109.403 284.964 119C284.964 130.758 278.481 140.439 271.397 144.311C263.934 148.388 258.055 145.206 258.055 134.658ZM278.105 164.16L272 167.498L300.113 94.0323L306.294 90.6547L278.105 164.16ZM306.671 148.374C299.285 152.411 293.406 149.228 293.33 138.722C293.33 128.692 298.682 118.157 307.048 113.585C315.49 108.972 320.239 113.466 320.239 123.063C320.239 134.821 313.757 144.501 306.671 148.374ZM297.038 27.1316C297.038 33.1819 293.437 38.0862 288.995 38.0862C284.554 38.0862 280.953 33.1819 280.953 27.1316C280.953 21.0799 284.554 16.1741 288.995 16.1741C293.437 16.1741 297.038 21.0799 297.038 27.1316Z" fill="#FC6E20"/>
<path d="M280.954 27.1317C280.954 33.182 284.555 38.0863 288.995 38.0863C293.437 38.0863 297.038 33.182 297.038 27.1317C297.038 21.0799 293.437 16.1742 288.995 16.1742C284.555 16.1742 280.954 21.0799 280.954 27.1317Z" fill="#D55E1C"/>
<path d="M307.049 113.585C298.682 118.157 293.331 128.693 293.331 138.722C293.406 149.228 299.285 152.411 306.672 148.374C313.757 144.501 320.239 134.822 320.239 123.063C320.239 113.467 315.491 108.972 307.049 113.585ZM306.898 141.075C303.582 142.887 301.848 139.6 301.924 133.678C301.924 128.059 303.432 122.74 306.898 120.845C310.441 118.908 311.722 122.618 311.722 128.323C311.722 134.635 310.139 139.303 306.898 141.075Z" fill="white"/>
<path d="M306.294 90.6548L300.114 94.0324L272 167.498L278.106 164.16L306.294 90.6548Z" fill="white"/>
<path d="M284.965 119C284.965 109.403 280.216 104.908 271.774 109.522C263.408 114.095 258.056 124.629 258.056 134.658C258.056 145.206 263.935 148.389 271.398 144.311C278.482 140.439 284.965 130.758 284.965 119ZM266.574 129.656C266.574 124.037 268.156 118.676 271.548 116.823C275.091 114.886 276.447 118.554 276.447 124.259C276.447 130.572 274.865 135.24 271.623 137.012C268.307 138.823 266.574 135.536 266.574 129.656Z" fill="white"/>
<path d="M362.222 323.395H372.919C365.356 323.395 359.225 312.242 359.225 298.484C359.225 290.601 361.243 283.585 364.385 279.022L349.925 287.573C349.038 290.871 348.526 294.566 348.526 298.484C348.526 312.242 354.658 323.395 362.222 323.395Z" fill="#4663AC"/>
<path d="M364.384 279.022C361.243 283.586 359.224 290.601 359.224 298.485C359.224 312.243 365.355 323.395 372.919 323.395C380.482 323.395 386.614 312.243 386.614 298.485C386.614 295.302 386.273 292.271 385.675 289.475C383.757 280.493 379.065 274.057 373.506 273.628L364.384 279.022ZM372.919 309.578C369.551 309.578 366.82 304.612 366.82 298.485C366.82 292.357 369.551 287.39 372.919 287.39C376.287 287.39 379.018 292.357 379.018 298.485C379.018 304.613 376.287 309.578 372.919 309.578Z" fill="#244B96"/>
<path d="M372.918 287.39C369.55 287.39 366.819 292.357 366.819 298.485C366.819 304.612 369.55 309.578 372.918 309.578C376.286 309.578 379.017 304.612 379.017 298.485C379.017 292.357 376.286 287.39 372.918 287.39Z" fill="#DFEFFB"/>
<path d="M182.169 198.051L178.59 195.988L178.328 195.09C177.072 194.685 175.882 194.118 174.775 193.404V202.351L174.794 202.414L177.077 210.15L174.775 208.949V214.786L179.091 216.978L182.235 227.632L175.236 223.76L174.775 223.507V247.232L183.918 252.865L214.451 271.682L227.579 279.772L238.363 273.246L217.052 202.405L210.268 198.177L205.594 195.262L197.771 199.888L203.241 203.299L205.366 211.422L194.848 205.359L193.956 202.144L187.537 205.94C187.207 206.135 186.892 206.258 186.586 206.35L189.932 208.232L192.765 218.332L186.407 215.016L183.749 213.629L180.643 203.007L183.835 204.803C183.759 204.499 183.705 204.17 183.705 203.793C183.705 202.465 184.223 200.983 185.028 199.698L183.765 198.971L182.169 198.051ZM194.28 249.65L192.966 245.155L190.943 238.24L198.118 242.109L199.669 242.945L203.069 255.066L194.28 249.65ZM201.184 228.205L204.152 229.713L211.065 233.227L211.343 234.289L212.739 239.63L214.228 245.324L204.428 239.905L201.961 231.009L201.184 228.205ZM206.257 246.499L215.894 251.695L219.408 265.135L209.781 259.202L206.257 246.499ZM234.094 274.186L229.711 271.485L226.02 269.21L225.043 265.417L222.414 255.213L229.404 258.983L230.41 262.243L232.713 269.708L234.094 274.186ZM227.447 252.635L220.803 248.961L219.512 243.946L217.606 236.549L223.393 239.49L226.053 248.114L227.447 252.635ZM220.177 229.064L221.487 233.311L216.975 230.958L216.039 230.471L213.763 221.636L218.751 224.442L220.177 229.064ZM211.07 208.181L214.37 210.237L216.762 217.992L212.137 215.326L211.42 212.542L210.148 207.605L211.07 208.181ZM207.047 217.859L209.344 226.644L209.446 227.03L209.043 226.821L199.406 221.795L196.7 212.039L207.047 217.859ZM187.427 221.215L194.595 224.856L197.785 236.232L189.11 231.433L188.924 231.33L185.711 220.343L187.427 221.215ZM184.309 234.662L185.907 240.077L187.499 245.47L179.031 240.254L176.002 230.182L177.393 230.932L184.309 234.662Z" fill="#DFEFFB"/>
<path d="M196.096 189.343C195.059 190.579 193.838 191.674 192.417 192.535L190.554 193.663C189.186 194.492 187.764 195.048 186.331 195.399L186.932 197.542C187.129 197.387 187.328 197.236 187.536 197.113L198.326 190.732L196.485 189.586L196.096 189.343Z" fill="#DFEFFB"/>
<path d="M314.758 308.368L349.925 287.573L364.384 279.022L373.506 273.628L375.446 272.481C377.565 271.227 379.28 268.239 379.28 265.8C379.28 263.361 377.565 262.401 375.446 263.653L360.364 272.572L314.758 299.54V308.368Z" fill="#BDD5E6"/>
<path d="M377.838 107.203L368.032 113.001L366.854 113.698L358.734 118.501L355.334 120.511L345.639 126.245L344.945 126.654L337.015 131.344L332.274 134.148L243.982 186.358L235.612 191.308L234.074 192.217L225.008 197.579L219.229 178.371L216.85 179.779L209.154 184.329L198.326 190.732L187.535 197.113C187.328 197.237 187.129 197.387 186.932 197.542C186.206 198.103 185.554 198.854 185.026 199.699C184.221 200.984 183.703 202.466 183.703 203.794C183.703 204.171 183.757 204.5 183.833 204.804C184.022 205.546 184.422 206.056 184.971 206.305C185.424 206.51 185.972 206.531 186.584 206.351C186.89 206.259 187.205 206.136 187.535 205.941L193.954 202.145L197.769 199.889L205.592 195.263L209.831 192.756L213.495 190.589L217.05 202.406L238.361 273.247L246.325 268.427L242.341 255.188L240.925 250.481L249.897 245.176L254.694 242.34L256.85 255.436L257.841 261.459L265.603 256.761L265.42 255.646L263.304 242.792L262.471 237.741L265.273 236.083L270.885 232.765L280.193 227.26L280.618 232.554L281.775 246.975L289.462 242.323L288.031 224.493L287.888 222.711L296.95 217.351L302.523 214.057L305.283 212.424V215.816V226.604V232.749L310.913 229.343L312.948 230.615V228.143V220.7V217.483V207.892L313.336 207.663L318.955 204.34L327.103 199.521L331.647 196.834L331.25 202.246L330.555 211.731L330.028 218.92L329.318 228.596L329.141 231.019L328.579 238.685L328.224 243.521L322.862 246.69L316.198 250.632L314.757 251.483V260.311L329.205 251.768L347.507 240.946L359.097 234.09C367.062 229.381 374.053 219.049 376.093 208.973L393.77 121.618C395.088 115.102 394.04 109.731 390.896 106.883H390.895C390.271 106.319 389.567 105.903 388.825 105.574C385.83 104.235 381.968 104.761 377.838 107.203ZM365.09 123.569L364.749 126.045L358.39 172.193L352.208 175.847L347.607 178.568L340.018 183.057L343.407 136.821L343.44 136.371L343.511 136.33L353.111 130.653L365.09 123.569ZM332.274 142.974L335.745 140.922L335.268 147.429L334.632 156.107L333.556 170.79L332.911 179.597L332.324 187.607L332.274 187.637L312.949 199.064V154.401L332.274 142.974ZM305.283 158.935V203.597L287.212 214.283L283.789 171.644L305.283 158.935ZM276.095 176.195L279.517 218.833L261.147 229.696L254.445 188.997L276.095 176.195ZM234.074 201.045L235.612 200.134L243.982 195.185L246.667 193.597L253.369 234.295L243.982 239.847L239.631 242.42L238.671 242.987L238.249 241.583L235.613 232.817L234.269 228.351L232.322 221.883L230.069 214.389L227.266 205.07L234.074 201.045ZM338.875 237.222L335.919 238.969L336.173 235.5L336.331 233.356L337.042 223.65L337.587 216.212L338.273 206.86L338.894 198.391L339.213 194.035L339.342 192.284L339.635 192.11L347.183 187.646L357.065 181.803L355.109 195.997L353.46 207.963L352.339 216.103L351.134 224.845L350.365 230.427L348.62 231.46L340.558 236.226L338.875 237.222ZM359.097 225.263L358.143 225.827L358.89 220.407L360.011 212.267L362.235 196.136L363.447 187.34L364.844 177.203L369.495 174.453L376.996 170.017L368.683 211.094C367.824 215.341 365.404 219.665 362.364 222.69C361.333 223.713 360.233 224.591 359.097 225.263ZM386.36 123.741L379.024 159.991L373.996 162.964L369.971 165.345L366.167 167.594L366.709 163.66L368.629 149.726L369.849 140.875L370.177 138.498L372.867 118.97L375.739 117.272L377.837 116.031C379.976 114.766 381.98 114.457 383.559 115.087C384.016 115.27 384.443 115.519 384.821 115.862C386.506 117.383 387.063 120.256 386.36 123.741Z" fill="#BDD5E6"/>
<path d="M33.0278 452.226L20.8236 443.662V430.988L0 442.906L40.5355 470.924L150.819 403.629V380.945L33.0278 452.226Z" fill="#BAC1E3"/>
<path d="M20.8237 443.662L33.0279 452.226V111.358L20.8237 102.794V136.443L22.8532 135.21L30.2879 140.426V172.567L21.1215 178.137L20.8237 177.928V193.329L22.8532 192.095L30.2879 197.312V229.454L21.1215 235.023L20.8237 234.814V270.903V430.989V443.662Z" fill="#1EAADB"/>
<path d="M174.775 25.5803L162.571 17.0178L20.8237 102.794L33.0279 111.358L174.775 25.5803Z" fill="#1EAADB"/>
<path d="M33.0278 452.226L150.819 380.945V341.183L38.2492 409.303V124.967L169.553 45.5088V59.8436L174.775 66.0057V25.5803L33.0278 111.358V452.226ZM96.3284 378.633L123.544 363.015C124.942 362.211 126.075 363.069 126.075 364.929V387.064C126.075 388.925 124.942 391.083 123.544 391.885L96.3284 407.505C94.9296 408.309 93.7967 407.451 93.7967 405.59V383.455C93.7967 381.595 94.9296 379.435 96.3284 378.633ZM90.9012 80.8274L118.117 65.2062C119.515 64.4042 120.649 65.262 120.649 67.1228C120.649 68.9821 119.516 71.1419 118.117 71.9442L90.9012 87.5625C89.5033 88.3662 88.3695 87.5082 88.3695 85.6477C88.3695 83.7866 89.5033 81.6297 90.9012 80.8274Z" fill="#78CFED"/>
<path d="M174.774 253.661V247.232V223.507V222.229V214.787V208.95V202.424V202.351V193.405C172.584 191.993 170.762 190.021 169.553 187.624V314.885L174.774 311.725V253.661Z" fill="#93C2EA"/>
<path d="M21.1207 145.997L13.6855 140.779V172.919L20.8229 177.928L21.1207 178.137V145.997Z" fill="#1EAADB"/>
<path d="M21.1207 145.997L30.2871 140.426L22.8524 135.21L20.8229 136.443L13.6855 140.779L21.1207 145.997Z" fill="#78CFED"/>
<path d="M21.1221 178.137L30.2884 172.567V140.426L21.1221 145.997V178.137Z" fill="#78CFED"/>
<path d="M21.1207 202.881L13.6855 197.664V229.806L20.8229 234.813L21.1207 235.023V202.881Z" fill="#1EAADB"/>
<path d="M21.1207 202.881L30.2871 197.312L22.8524 192.095L20.8229 193.329L13.6855 197.664L21.1207 202.881Z" fill="#78CFED"/>
<path d="M21.1221 235.023L30.2884 229.454V197.312L21.1221 202.881V235.023Z" fill="#78CFED"/>
<path d="M169.553 314.885V187.623C168.55 185.638 167.948 183.385 167.948 180.911V198.955C167.948 204.17 165.224 209.006 160.765 211.706L158.901 212.833C157.849 213.472 156.762 213.93 155.667 214.282V255.47C155.667 259.493 153.564 263.223 150.121 265.305L76.6746 309.753C69.0115 314.389 59.2241 308.872 59.2241 299.917V199.343C59.2241 195.319 61.3269 191.588 64.7688 189.505L76.8306 182.206L38.4415 136.917V131.172L165.063 54.5479L169.552 59.8435V45.5087L38.249 124.967V409.303L150.819 341.183V326.222L169.553 314.885ZM141.334 319.709C141.334 322.537 139.856 325.158 137.437 326.622L84.0235 358.767C78.6384 362.027 73.5575 360.324 73.5575 354.03V341.132C73.5575 338.304 75.0355 335.683 77.4542 334.219L132.298 301.063C137.683 297.806 141.335 300.396 141.335 306.689V319.709H141.334Z" fill="#DFEFFB"/>
<path d="M167.949 170.981V170.977L167.934 170.961L155.667 178.385V178.416L167.949 170.981Z" fill="#DFEFFB"/>
<path d="M96.7375 230.554L103.295 226.675L102.121 212.042L101.773 211.631L94.3447 216.024L96.7375 230.554Z" fill="#BAC1E3"/>
<path d="M136.291 207.163L137.669 206.348C136.802 204.474 136.297 202.369 136.297 200.082V193.382L136.291 193.419V207.163Z" fill="#BAC1E3"/>
<path d="M155.667 178.416V178.385L142.524 186.337L142.56 186.354L155.667 178.416Z" fill="#BAC1E3"/>
<path d="M107.163 227.539L106.283 228.059L107.505 243.282L112.494 240.331V232.367C110.369 231.224 108.533 229.574 107.163 227.539Z" fill="#BAC1E3"/>
<path d="M115.23 233.502V238.713L120.683 235.488L120.786 234.096C118.884 234.257 117.005 234.046 115.23 233.502Z" fill="#BAC1E3"/>
<path d="M123.431 233.864L124.309 233.344C124.021 233.444 123.736 233.568 123.447 233.648L123.431 233.864Z" fill="#BAC1E3"/>
<path d="M104.758 244.906L103.537 229.683L97.21 233.425L99.6027 247.954L104.758 244.906Z" fill="#BAC1E3"/>
<path d="M88.7125 235.298L93.9596 232.195L91.5669 217.666L84.6401 221.762L88.7125 235.298Z" fill="#BAC1E3"/>
<path d="M140.373 210.303L137.772 223.154C137.044 226.753 134.548 230.441 131.705 232.122L96.2391 253.095C95.5616 253.495 94.9034 253.752 94.2817 253.883L97.1945 263.71C97.6135 265.125 98.9565 265.492 100.46 264.604L137.541 242.676C138.297 242.229 138.91 242.571 138.91 243.442C138.91 244.313 138.297 245.38 137.541 245.827L133.899 247.981C134.79 248.458 135.347 249.522 135.347 251.07C135.347 254.121 133.2 257.863 130.552 259.43C127.903 260.995 125.756 259.792 125.756 256.743C125.756 255.194 126.313 253.47 127.205 251.938L109.592 262.355C110.484 262.83 111.041 263.896 111.041 265.444C111.041 268.494 108.894 272.236 106.245 273.803C103.596 275.369 101.449 274.166 101.449 271.116C101.449 269.568 102.007 267.843 102.898 266.314L100.46 267.755C97.7477 269.359 95.3241 268.697 94.5676 266.143L90.221 251.478L90.2168 251.466L79.7247 216.593L70.4573 222.073C69.7012 222.52 69.0888 222.177 69.0888 221.306C69.0888 220.435 69.7012 219.368 70.4573 218.922L81.7723 212.231L83.835 219.086L99.9932 209.532L76.8306 182.206L64.7688 189.505C61.3269 191.588 59.2241 195.319 59.2241 199.343V299.917C59.2241 308.872 69.0116 314.389 76.6747 309.753L150.121 265.306C153.564 263.223 155.667 259.493 155.667 255.47V214.283C150.073 216.077 144.175 214.298 140.373 210.303Z" fill="#BAC1E3"/>
<path d="M89.5181 237.973L92.8424 249.025C93.2821 250.489 94.678 250.866 96.2393 249.943L96.8259 249.596L94.4332 235.067L89.5181 237.973Z" fill="#BAC1E3"/>
<path d="M131.367 229.153L131.364 229.173L131.705 228.972C133.309 228.023 134.717 225.942 135.127 223.914L135.14 223.85C134.3 225.868 133.005 227.672 131.367 229.153Z" fill="#BAC1E3"/>
<path d="M136.287 218.179L138.094 209.249L136.29 210.315V218.123L136.287 218.179Z" fill="#BAC1E3"/>
<path d="M132.298 301.063L77.4544 334.219C75.0359 335.683 73.5576 338.304 73.5576 341.131V354.03C73.5576 360.324 78.6389 362.027 84.0236 358.767L137.437 326.622C139.856 325.158 141.334 322.537 141.334 319.709V306.689C141.335 300.396 137.683 297.806 132.298 301.063ZM140.107 319.342C140.107 321.686 138.882 323.859 136.879 325.072L89.3523 353.667C84.8899 356.367 80.6797 354.957 80.6797 349.74V341.36C80.6797 339.017 81.9044 336.846 83.9087 335.633L132.619 306.199C137.081 303.499 140.107 305.646 140.107 310.862V319.342Z" fill="#CC447A"/>
<path d="M132.618 306.199L83.9082 335.632C81.9036 336.845 80.6792 339.017 80.6792 341.36V349.74C80.6792 354.956 84.8897 356.367 89.3518 353.667L136.878 325.072C138.882 323.859 140.106 321.686 140.106 319.342V310.861C140.106 305.646 137.081 303.499 132.618 306.199ZM102.618 341.247C101.745 342.635 100.286 343.999 97.8987 345.424C96.5631 346.224 95.5663 346.707 94.9602 346.958V332.245C95.6728 331.642 97.1151 330.647 98.4689 329.839C100.125 328.848 101.14 328.442 102.013 328.564C102.85 328.618 103.455 329.28 103.455 330.637C103.455 331.969 102.832 333.586 101.479 335.018V335.061C102.849 334.709 103.864 335.392 103.864 337.324C103.864 338.681 103.366 340.046 102.618 341.247ZM115.509 328.164C115.509 332.788 113.639 336.105 110.505 337.979C107.477 339.788 105.696 338.762 105.696 333.984V325.628L108.421 324V332.623C108.421 335.201 109.204 336.044 110.593 335.214C112.018 334.362 112.802 332.649 112.802 330.005V321.381L115.508 319.764L115.509 328.164ZM123.341 323.817V330.062L120.634 331.68V325.546L116.841 318.968L119.94 317.116L121.169 319.982C121.543 320.847 121.792 321.498 122.095 322.296L122.13 322.275C122.397 321.18 122.682 320.145 123.038 318.864L124.249 314.538L127.294 312.719L123.341 323.817Z" fill="#DE679B"/>
<path d="M100.731 332.686C100.731 331.553 100.037 331.369 98.8077 332.102C98.2202 332.454 97.8817 332.701 97.6504 332.884V336.373L98.5413 335.841C99.965 334.988 100.731 333.798 100.731 332.686Z" fill="#DE679B"/>
<path d="M98.5754 338.241L97.6494 338.794V343.017C97.9167 342.902 98.2368 342.71 98.7 342.434C99.9289 341.699 101.015 340.473 101.015 338.894C101.015 337.383 99.9292 337.432 98.5754 338.241Z" fill="#DE679B"/>
<path d="M90.9009 87.5622L118.117 71.9439C119.515 71.1419 120.649 68.9818 120.649 67.1225C120.649 65.2617 119.515 64.4039 118.117 65.2059L90.9009 80.8271C89.503 81.6291 88.3691 83.7863 88.3691 85.6471C88.3691 87.5078 89.503 88.3659 90.9009 87.5622Z" fill="#1EAADB"/>
<path d="M93.7969 405.59C93.7969 407.451 94.9298 408.309 96.3286 407.505L123.544 391.885C124.943 391.083 126.076 388.924 126.076 387.064V364.928C126.076 363.069 124.943 362.211 123.544 363.015L96.3286 378.633C94.9298 379.435 93.7969 381.595 93.7969 383.454V405.59Z" fill="#1EAADB"/>
<path d="M101.479 335.061V335.018C102.832 333.586 103.455 331.969 103.455 330.637C103.455 329.28 102.85 328.619 102.013 328.564C101.14 328.442 100.125 328.848 98.4691 329.839C97.1156 330.647 95.673 331.642 94.9604 332.245V346.958C95.5663 346.708 96.5631 346.224 97.899 345.424C100.286 343.999 101.746 342.635 102.619 341.247C103.366 340.046 103.865 338.681 103.865 337.324C103.865 335.392 102.85 334.709 101.479 335.061ZM97.6498 332.884C97.8811 332.701 98.2197 332.454 98.8071 332.102C100.036 331.369 100.731 331.553 100.731 332.686C100.731 333.798 99.9644 334.988 98.5407 335.84L97.6498 336.373V332.884ZM98.7004 342.434C98.237 342.71 97.9168 342.902 97.6498 343.016V338.794L98.5759 338.241C99.9296 337.432 101.015 337.383 101.015 338.894C101.015 340.473 99.9293 341.699 98.7004 342.434Z" fill="white"/>
<path d="M112.801 330.005C112.801 332.649 112.017 334.362 110.592 335.214C109.203 336.043 108.42 335.201 108.42 332.623V324L105.696 325.628V333.984C105.696 338.762 107.476 339.788 110.504 337.979C113.638 336.105 115.508 332.788 115.508 328.164V319.764L112.802 321.381V330.005H112.801Z" fill="white"/>
<path d="M123.039 318.864C122.682 320.145 122.398 321.18 122.13 322.275L122.095 322.296C121.792 321.498 121.543 320.847 121.169 319.982L119.94 317.116L116.842 318.968L120.635 325.546V331.68L123.341 330.062V323.817L127.294 312.719L124.25 314.539L123.039 318.864Z" fill="white"/>
<path d="M136.291 193.419L136.297 193.382V190.147L142.56 186.354L142.525 186.337L136.27 190.123L136.291 190.149V193.419Z" fill="#4663AC"/>
<path d="M133.071 192.094L133.074 192.097L136.291 190.149L133.071 192.094Z" fill="#4663AC"/>
<path d="M81.7719 212.231L70.4569 218.922C69.7007 219.369 69.0884 220.436 69.0884 221.306C69.0884 222.177 69.7007 222.519 70.4569 222.073L79.7243 216.593L90.2163 251.466L90.2206 251.478L94.5672 266.143C95.3233 268.697 97.7469 269.359 100.459 267.755L102.898 266.314C102.006 267.844 101.449 269.568 101.449 271.116C101.449 274.166 103.596 275.369 106.244 273.804C108.893 272.237 111.04 268.494 111.04 265.444C111.04 263.896 110.483 262.83 109.592 262.355L127.204 251.938C126.312 253.47 125.756 255.194 125.756 256.743C125.756 259.792 127.902 260.995 130.552 259.43C133.2 257.863 135.347 254.121 135.347 251.07C135.347 249.522 134.79 248.458 133.898 247.981L137.541 245.827C138.297 245.38 138.909 244.313 138.909 243.442C138.909 242.571 138.297 242.229 137.541 242.676L100.459 264.604C98.956 265.492 97.6133 265.125 97.194 263.71L94.2813 253.883C94.9029 253.752 95.5609 253.495 96.2386 253.095L131.704 232.122C134.548 230.441 137.044 226.753 137.772 223.154L140.372 210.303C139.277 209.155 138.353 207.831 137.668 206.349L136.29 207.164V210.315L138.094 209.249L136.287 218.179C136.28 220.158 135.876 222.077 135.139 223.849L135.126 223.913C134.716 225.942 133.308 228.023 131.704 228.971L131.364 229.173L131.366 229.153C130.669 229.786 129.928 230.376 129.107 230.873L127.244 232.002C126.288 232.58 125.302 233.001 124.308 233.344L123.43 233.864L123.445 233.648C122.561 233.893 121.672 234.022 120.785 234.096L120.682 235.488L115.229 238.713V233.502C114.281 233.211 113.364 232.836 112.493 232.367V240.331L107.504 243.282L106.282 228.059L107.162 227.539C105.597 225.217 104.638 222.408 104.638 219.251V215.008L104.635 215.01L102.12 212.042L103.294 226.675L96.736 230.554L94.3433 216.024L101.771 211.631L99.9924 209.533L83.8342 219.087L81.7719 212.231ZM103.536 229.683L104.757 244.906L99.6018 247.954L97.209 233.425L103.536 229.683ZM96.8252 249.596L96.2386 249.944C94.6773 250.866 93.2817 250.49 92.8417 249.026L89.5174 237.974L94.4324 235.067L96.8252 249.596ZM91.567 217.666L93.9597 232.196L88.7122 235.298L84.6399 221.762L91.567 217.666Z" fill="#4663AC"/>
<path d="M76.8305 182.206L99.9933 209.533L101.772 211.631L102.12 212.042L104.635 215.01L104.638 215.008V209.315L133.073 192.096L133.07 192.094L104.635 209.266L38.4414 131.172V136.916L76.8305 182.206Z" fill="#93C2EA"/>
<path d="M165.063 54.548L38.4414 131.172L70.0965 112.056L136.269 190.123L142.524 186.337L155.666 178.385L167.934 170.961L101.756 92.8864L133.411 73.7687L199.567 151.818L206.223 147.791L213.91 143.139L231.257 132.641L221.598 121.246L216.615 115.367L174.774 66.0057L169.553 59.8435L165.063 54.548Z" fill="#FC6E20"/>
<path d="M104.635 209.266L133.07 192.094L136.29 190.149L136.269 190.123L70.0965 112.056L38.4414 131.172L104.635 209.266Z" fill="#78CFED"/>
<path d="M199.606 151.863L199.601 151.857V151.866L199.606 151.863Z" fill="#ADD2F1"/>
<path d="M167.949 170.975L199.574 151.826L199.568 151.817L133.411 73.7686L101.756 92.8862L167.934 170.961L167.949 170.976V170.975Z" fill="#78CFED"/>
<path d="M104.639 219.251C104.639 222.408 105.598 225.217 107.163 227.539C108.533 229.574 110.37 231.224 112.494 232.367C113.365 232.835 114.282 233.211 115.23 233.502C117.005 234.046 118.884 234.257 120.786 234.096C121.673 234.022 122.562 233.892 123.446 233.648C123.736 233.567 124.021 233.444 124.309 233.344C125.302 233.002 126.288 232.58 127.245 232.002L129.107 230.873C129.929 230.376 130.67 229.786 131.367 229.153C133.005 227.672 134.3 225.867 135.14 223.849C135.877 222.077 136.28 220.158 136.287 218.178L136.291 218.122V210.314V207.163V193.419V190.149L133.074 192.097L104.639 209.315V215.009L104.639 219.251Z" fill="#1EAADB"/>
<path d="M167.949 170.981L155.668 178.416L142.56 186.354L136.297 190.147V193.382V200.082C136.297 202.37 136.803 204.474 137.67 206.348C138.354 207.831 139.279 209.154 140.374 210.303C144.176 214.298 150.074 216.077 155.668 214.282C156.764 213.93 157.851 213.472 158.903 212.833L160.766 211.706C165.225 209.006 167.95 204.17 167.95 198.955V180.911L167.949 170.981Z" fill="#D55E1C"/>
<path d="M174.775 193.405C175.881 194.118 177.072 194.685 178.328 195.091C180.857 195.909 183.61 196.066 186.331 195.399C187.764 195.048 189.186 194.492 190.554 193.663L192.418 192.535C193.839 191.675 195.059 190.579 196.096 189.343C198.312 186.696 199.601 183.338 199.601 179.783V178.917V156.098V151.867V151.857V151.809L199.575 151.827L167.949 170.975V170.977V170.981V180.911C167.949 183.385 168.55 185.638 169.553 187.623C170.762 190.021 172.584 191.992 174.775 193.405Z" fill="#1EAADB"/>
<path d="M206.224 147.8L199.605 151.808V151.864V156.095V161.744C199.605 167.439 202.666 172.05 206.947 174.572C210.926 176.915 215.956 177.438 220.596 175.328C221.14 175.08 221.681 174.815 222.211 174.495L224.074 173.366C224.388 173.177 224.672 172.954 224.968 172.741C228.882 169.961 231.257 165.464 231.257 160.615V160.197V132.641L213.909 143.146L206.224 147.8Z" fill="#D55E1C"/>
<path d="M314.758 364.131L154.664 461.011L150.819 458.61V443.616L131.233 455.321L162.385 476.854L334.345 369.291L325.769 363.492L314.758 356.046V364.131Z" fill="#BAC1E3"/>
<path d="M154.664 461.011V328.624L150.819 326.222V341.183V380.945V403.629V443.616V458.61L154.664 461.011Z" fill="#F9B256"/>
<path d="M227.578 279.772L197.783 297.803L174.775 311.726L169.553 314.885L150.819 326.222L154.664 328.624L314.758 231.743L312.949 230.614L310.914 229.342L305.284 232.748L303.08 234.083L289.463 242.322L281.776 246.975L266.379 256.292L265.604 256.76L257.842 261.458L252.276 264.826L246.326 268.427L238.362 273.247L227.578 279.772Z" fill="#FEF2AC"/>
<path d="M314.758 241.524V231.743L154.664 328.624V461.011L314.758 364.131V356.046V308.368V299.54V260.309V251.482V249.66V241.524ZM282.173 266.274L297.823 256.813C301.472 254.606 306.132 257.234 306.132 261.498V281.978C306.132 283.895 305.129 285.672 303.488 286.665L287.84 296.125C284.19 298.333 279.531 295.704 279.531 291.44V270.96C279.531 269.044 280.533 267.267 282.173 266.274ZM265.207 273.298C268.857 271.092 273.516 273.719 273.516 277.985V298.463C273.516 300.381 272.514 302.157 270.873 303.15L255.225 312.611C251.575 314.817 246.916 312.189 246.916 307.924V287.446C246.916 285.529 247.918 283.752 249.559 282.761L265.207 273.298ZM185.808 324.867C189.458 322.66 194.117 325.288 194.117 329.552V350.032C194.117 351.948 193.115 353.726 191.475 354.718L175.825 364.179C172.177 366.386 167.516 363.758 167.516 359.494V339.014C167.516 337.098 168.519 335.319 170.159 334.328L185.808 324.867ZM301.655 317.15V325.201L204.858 383.696V375.645L301.655 317.15ZM301.655 332.221V340.27L167.516 421.16V413.11L301.655 332.221ZM167.516 406.09V398.039L196.404 380.716V388.766L167.516 406.09ZM301.655 309.584L167.516 390.473V382.422L301.655 301.533V309.584Z" fill="#FFD667"/>
<path d="M167.517 339.014V359.494C167.517 363.758 172.177 366.387 175.826 364.179L191.475 354.719C193.115 353.726 194.118 351.948 194.118 350.032V329.552C194.118 325.288 189.459 322.66 185.809 324.867L170.16 334.328C168.52 335.319 167.517 337.098 167.517 339.014Z" fill="#4663AC"/>
<path d="M279.532 270.961V291.44C279.532 295.704 284.191 298.333 287.841 296.126L303.489 286.665C305.13 285.672 306.133 283.895 306.133 281.978V261.499C306.133 257.235 301.472 254.606 297.824 256.813L282.174 266.274C280.534 267.266 279.532 269.044 279.532 270.961Z" fill="#CC447A"/>
<path d="M249.559 282.761C247.918 283.752 246.916 285.529 246.916 287.446V307.924C246.916 312.19 251.575 314.817 255.225 312.611L270.873 303.15C272.514 302.157 273.516 300.381 273.516 298.463V277.985C273.516 273.719 268.857 271.093 265.207 273.298L249.559 282.761Z" fill="#7BA3D6"/>
<path d="M167.517 382.422V390.473L301.655 309.584V301.533L167.517 382.422Z" fill="#4663AC"/>
<path d="M167.517 421.16L301.655 340.271V332.221L167.517 413.11V421.16Z" fill="#4663AC"/>
<path d="M167.517 398.039V406.09L196.405 388.766V380.716L167.517 398.039Z" fill="#4663AC"/>
<path d="M204.858 375.646V383.697L301.655 325.201V317.15L204.858 375.646Z" fill="#4663AC"/>
</svg>
