<svg width="27" height="26" viewBox="0 0 27 26" fill="none" xmlns="http://www.w3.org/2000/svg">
<path d="M22.7254 25.3111C23.2073 25.3111 23.6695 25.1197 24.0102 24.7789C24.351 24.4382 24.5424 23.976 24.5424 23.4941C24.5424 23.0122 24.351 22.55 24.0102 22.2093C23.6695 21.8685 23.2073 21.6771 22.7254 21.6771C22.2435 21.6771 21.7813 21.8685 21.4406 22.2093C21.0998 22.55 20.9084 23.0122 20.9084 23.4941C20.9084 23.976 21.0998 24.4382 21.4406 24.7789C21.7813 25.1197 22.2435 25.3111 22.7254 25.3111ZM10.6118 25.3111C11.0937 25.3111 11.5559 25.1197 11.8967 24.7789C12.2374 24.4382 12.4289 23.976 12.4289 23.4941C12.4289 23.0122 12.2374 22.55 11.8967 22.2093C11.5559 21.8685 11.0937 21.6771 10.6118 21.6771C10.1299 21.6771 9.66776 21.8685 9.327 22.2093C8.98624 22.55 8.7948 23.0122 8.7948 23.4941C8.7948 23.976 8.98624 24.4382 9.327 24.7789C9.66776 25.1197 10.1299 25.3111 10.6118 25.3111Z" fill="black" stroke="black" stroke-width="1.24597" strokeLinecap="round" stroke-linejoin="round"/>
<path d="M5.16075 3.5067H25.7538L23.3311 16.8316M5.16075 3.5067L7.58346 16.8316H23.3311M5.16075 3.5067C4.95845 2.69872 3.94939 1.08398 1.52667 1.08398M23.3311 16.8316H5.43936C3.2783 16.8316 2.13235 17.7777 2.13235 19.2543C2.13235 20.731 3.2783 21.6771 5.43936 21.6771H22.7254" stroke="black" stroke-width="1.24597" strokeLinecap="round" stroke-linejoin="round"/>
</svg>
