<svg width="32" height="33" viewBox="0 0 32 33" fill="none" xmlns="http://www.w3.org/2000/svg">
<path d="M4.06958 10.0694H8.02791M8.02791 10.0694C8.02791 12.2556 9.80012 14.0278 11.9862 14.0278C14.1724 14.0278 15.9446 12.2556 15.9446 10.0694C15.9446 7.88332 14.1724 6.11111 11.9862 6.11111C9.80012 6.11111 8.02791 7.88332 8.02791 10.0694ZM4.06958 23.2639H11.9862M23.8612 23.2639H27.8196M23.8612 23.2639C23.8612 25.45 22.089 27.2222 19.9029 27.2222C17.7168 27.2222 15.9446 25.45 15.9446 23.2639C15.9446 21.0778 17.7168 19.3056 19.9029 19.3056C22.089 19.3056 23.8612 21.0778 23.8612 23.2639ZM19.9029 10.0694H27.8196" stroke="#F97316" stroke-width="1.97917" stroke-linecap="round"/>
</svg>
