<svg width="27" height="27" viewBox="0 0 27 27" fill="none" xmlns="http://www.w3.org/2000/svg">
<g clip-path="url(#clip0_1_1919)">
<path d="M26.3656 13.2246C26.3656 6.13451 20.6179 0.386719 13.5277 0.386719C6.43761 0.386719 0.689819 6.13451 0.689819 13.2246C0.689819 19.2451 4.83492 24.2971 10.4266 25.6846V17.1479H7.77943V13.2246H10.4266V11.5341C10.4266 7.16462 12.4042 5.13931 16.6941 5.13931C17.5075 5.13931 18.9109 5.29902 19.485 5.45821V9.01431C19.1821 8.98247 18.6557 8.96655 18.002 8.96655C15.8971 8.96655 15.0837 9.76404 15.0837 11.8371V13.2246H19.2771L18.5566 17.1479H15.0837V25.9686C21.4405 25.2009 26.3662 19.7884 26.3662 13.2246H26.3656Z" fill="#214A25"/>
<path d="M18.556 17.1477L19.2765 13.2245H15.0831V11.837C15.0831 9.76389 15.8965 8.9664 18.0014 8.9664C18.6551 8.9664 19.1815 8.98232 19.4845 9.01416V5.45805C18.9104 5.29835 17.5069 5.13916 16.6935 5.13916C12.4036 5.13916 10.426 7.16447 10.426 11.534V13.2245H7.77887V17.1477H10.426V25.6844C11.4192 25.9309 12.458 26.0624 13.5272 26.0624C14.0535 26.0624 14.5727 26.03 15.0826 25.9684V17.1477H18.5555H18.556Z" fill="white"/>
</g>
<defs>
<clipPath id="clip0_1_1919">
<rect width="25.6758" height="25.6758" fill="white" transform="translate(0.689819 0.386719)"/>
</clipPath>
</defs>
</svg>
