<svg width="27" height="27" viewBox="0 0 27 27" fill="none" xmlns="http://www.w3.org/2000/svg">
<path d="M13.4151 0.386719H13.3567C6.28471 0.386719 0.551758 6.12136 0.551758 13.1954V13.2539C0.551758 20.3279 6.28471 26.0625 13.3567 26.0625H13.4151C20.4871 26.0625 26.22 20.3279 26.22 13.2539V13.1954C26.22 6.12136 20.4871 0.386719 13.4151 0.386719Z" fill="#214A25"/>
<path d="M17.3575 5.61035H9.41506C7.22081 5.61035 5.43573 7.39596 5.43573 9.59086V16.8592C5.43573 19.0541 7.22081 20.8397 9.41506 20.8397H17.3575C19.5518 20.8397 21.3369 19.0541 21.3369 16.8592V9.59086C21.3369 7.39596 19.5518 5.61035 17.3575 5.61035ZM6.83951 9.59086C6.83951 8.17047 7.99509 7.01455 9.41506 7.01455H17.3575C18.7775 7.01455 19.9331 8.17047 19.9331 9.59086V16.8592C19.9331 18.2796 18.7775 19.4355 17.3575 19.4355H9.41506C7.99509 19.4355 6.83951 18.2796 6.83951 16.8592V9.59086Z" fill="white"/>
<path d="M13.3864 16.9266C15.4269 16.9266 17.0878 15.266 17.0878 13.224C17.0878 11.1821 15.4278 9.52148 13.3864 9.52148C11.345 9.52148 9.68494 11.1821 9.68494 13.224C9.68494 15.266 11.345 16.9266 13.3864 16.9266ZM13.3864 10.9266C14.6535 10.9266 15.6841 11.9575 15.6841 13.2249C15.6841 14.4924 14.6535 15.5233 13.3864 15.5233C12.1193 15.5233 11.0887 14.4924 11.0887 13.2249C11.0887 11.9575 12.1193 10.9266 13.3864 10.9266Z" fill="white"/>
<path d="M17.4306 10.1197C17.9801 10.1197 18.4279 9.67264 18.4279 9.12211C18.4279 8.57159 17.981 8.12451 17.4306 8.12451C16.8802 8.12451 16.4333 8.57159 16.4333 9.12211C16.4333 9.67264 16.8802 10.1197 17.4306 10.1197Z" fill="white"/>
</svg>
