<svg width="27" height="27" viewBox="0 0 27 27" fill="none" xmlns="http://www.w3.org/2000/svg">
<g clip-path="url(#clip0_1_1921)">
<path d="M13.3131 26.0625C20.4033 26.0625 26.151 20.3148 26.151 13.2246C26.151 6.13445 20.4033 0.386719 13.3131 0.386719C6.22295 0.386719 0.47522 6.13445 0.47522 13.2246C0.47522 20.3148 6.22295 26.0625 13.3131 26.0625Z" fill="white"/>
<path d="M13.3131 0.386719C6.22322 0.386719 0.47522 6.13472 0.47522 13.2246C0.47522 18.6662 3.8564 23.3153 8.63231 25.1855C8.51608 24.1712 8.42099 22.6074 8.67458 21.498C8.90703 20.4942 10.175 15.116 10.175 15.116C10.175 15.116 9.79459 14.3446 9.79459 13.2141C9.79459 11.4284 10.8301 10.097 12.1192 10.097C13.218 10.097 13.7463 10.9212 13.7463 11.9039C13.7463 13.0027 13.049 14.6511 12.6792 16.1832C12.3727 17.4617 13.3237 18.5077 14.5811 18.5077C16.8634 18.5077 18.6174 16.0986 18.6174 12.6329C18.6174 9.55817 16.409 7.41323 13.2497 7.41323C9.59384 7.41323 7.4489 10.1499 7.4489 12.9816C7.4489 14.0805 7.87155 15.2639 8.39986 15.9084C8.50552 16.0352 8.51609 16.1515 8.48439 16.2783C8.38929 16.6798 8.1674 17.5568 8.12514 17.7364C8.07231 17.9688 7.93495 18.0217 7.69192 17.9055C6.08586 17.1553 5.08208 14.8201 5.08208 12.9288C5.08208 8.88193 8.01947 5.16263 13.5667 5.16263C18.0151 5.16263 21.4808 8.33249 21.4808 12.5801C21.4808 17.0073 18.6913 20.5681 14.8241 20.5681C13.5245 20.5681 12.2988 19.8919 11.8867 19.0889C11.8867 19.0889 11.2422 21.5402 11.0837 22.1425C10.7984 23.2625 10.0165 24.6572 9.48817 25.5131C10.6927 25.8829 11.9607 26.0837 13.292 26.0837C20.3819 26.0837 26.1299 20.3357 26.1299 13.2458C26.151 6.13472 20.403 0.386719 13.3131 0.386719Z" fill="#214A25"/>
</g>
<defs>
<clipPath id="clip0_1_1921">
<rect width="25.6758" height="25.6758" fill="white" transform="translate(0.47522 0.386719)"/>
</clipPath>
</defs>
</svg>
