<svg width="27" height="27" viewBox="0 0 27 27" fill="none" xmlns="http://www.w3.org/2000/svg">
<path d="M13.4879 0.386719H13.4295C6.35543 0.386719 0.620789 6.12305 0.620789 13.1992V13.2577C0.620789 20.3338 6.35543 26.0701 13.4295 26.0701H13.4879C20.562 26.0701 26.2966 20.3338 26.2966 13.2577V13.1992C26.2966 6.12305 20.562 0.386719 13.4879 0.386719Z" fill="#214A25"/>
<path d="M15.9608 16.9847C12.6747 16.9847 10.0013 14.3095 10.0004 11.0225C10.0013 10.1893 10.6795 9.51172 11.5107 9.51172C11.5962 9.51172 11.6807 9.51892 11.7617 9.53331C11.9398 9.56301 12.1089 9.6233 12.2645 9.71418C12.287 9.72767 12.3023 9.74927 12.3059 9.77446L12.6531 11.9637C12.6576 11.9898 12.6495 12.015 12.6324 12.0339C12.4408 12.2463 12.1962 12.3992 11.9236 12.4757L11.7923 12.5126L11.8417 12.6395C12.2897 13.7804 13.2019 14.6919 14.3434 15.1419L14.4702 15.1922L14.5071 15.0609C14.5836 14.7882 14.7365 14.5435 14.9488 14.3518C14.9641 14.3374 14.9848 14.3302 15.0055 14.3302C15.01 14.3302 15.0145 14.3302 15.0199 14.3311L17.2085 14.6784C17.2345 14.6829 17.2561 14.6973 17.2696 14.7198C17.3596 14.8755 17.4198 15.0456 17.4504 15.2237C17.4648 15.3029 17.4711 15.3866 17.4711 15.4739C17.4711 16.3062 16.7938 16.9838 15.9608 16.9847Z" fill="#FDFDFD"/>
<path d="M21.7879 12.5072C21.6107 10.5042 20.6932 8.64607 19.2044 7.27565C17.7067 5.89714 15.7637 5.1377 13.7316 5.1377C9.27162 5.1377 5.64285 8.76754 5.64285 13.2288C5.64285 14.7261 6.05573 16.1847 6.83744 17.4552L5.09412 21.3154L10.6758 20.7207C11.6464 21.1184 12.6737 21.3199 13.7307 21.3199C14.0086 21.3199 14.2938 21.3055 14.5799 21.2759C14.8317 21.2489 15.0863 21.2093 15.3364 21.1589C19.0713 20.4039 21.7978 17.0881 21.8194 13.272V13.2288C21.8194 12.9859 21.8086 12.7429 21.787 12.5072H21.7879ZM10.8908 19.0263L7.80267 19.3556L8.7247 17.3122L8.54029 17.0647C8.5268 17.0467 8.51331 17.0287 8.49802 17.008C7.69742 15.9022 7.27462 14.5956 7.27462 13.2297C7.27462 9.66826 10.1712 6.77086 13.7316 6.77086C17.0671 6.77086 19.8944 9.37402 20.167 12.697C20.1814 12.8752 20.1894 13.0543 20.1894 13.2306C20.1894 13.281 20.1885 13.3305 20.1876 13.3836C20.1193 16.3629 18.0386 18.8931 15.1277 19.5374C14.9055 19.5869 14.6779 19.6247 14.4512 19.649C14.2155 19.676 13.9736 19.6895 13.7334 19.6895C12.8779 19.6895 12.0467 19.5239 11.2614 19.1964C11.1742 19.1613 11.0887 19.1235 11.0086 19.0848L10.8917 19.0281L10.8908 19.0263Z" fill="#FDFDFD"/>
</svg>
